<?xml version="1.0" standalone="no"?>
<!DOCTYPE svg PUBLIC "-//W3C//DTD SVG 20010904//EN"
 "http://www.w3.org/TR/2001/REC-SVG-20010904/DTD/svg10.dtd">
<svg version="1.0" xmlns="http://www.w3.org/2000/svg"
 width="441.000000pt" height="566.000000pt" viewBox="0 0 441.000000 566.000000"
 preserveAspectRatio="xMidYMid meet">

<g transform="translate(0.000000,566.000000) scale(0.100000,-0.100000)"
fill="#000000" stroke="none">
<path d="M1532 3750 c-51 -46 -113 -82 -197 -116 l-60 -25 75 6 c75 5 75 5 51
-14 -14 -10 -60 -36 -103 -57 -43 -21 -78 -41 -78 -46 0 -4 27 -10 60 -14 33
-4 63 -10 65 -14 3 -5 -18 -13 -45 -20 -28 -7 -50 -15 -50 -20 0 -15 109 -41
179 -42 39 -1 71 -3 71 -5 0 -2 -33 -19 -72 -38 -40 -19 -66 -34 -57 -34 56
-3 212 -71 197 -87 -2 -2 -26 3 -53 11 -75 23 -77 21 -43 -44 33 -64 44 -129
33 -188 l-7 -38 -30 65 c-33 71 -31 73 -52 -20 -6 -28 -85 -144 -93 -137 -2 3
0 22 5 43 18 71 22 104 12 104 -6 0 -10 -7 -10 -17 0 -48 -82 -110 -169 -128
l-35 -7 27 32 c15 18 35 46 45 64 l17 31 5 -45 5 -45 33 44 c29 40 32 50 32
119 l0 75 23 -21 c30 -28 37 -28 37 1 0 82 -54 168 -132 208 l-33 17 35 15 35
14 -40 11 c-83 24 -197 3 -208 -38 -3 -13 -18 -20 -52 -25 -30 -5 -50 -14 -58
-27 -27 -45 -141 -77 -272 -78 -76 -1 -58 -13 55 -36 102 -20 219 -15 235 12
31 52 52 67 103 72 29 2 52 1 52 -2 0 -4 -13 -19 -30 -33 -40 -33 -42 -91 -5
-139 35 -46 41 -84 19 -125 -19 -37 -15 -41 -45 39 -36 98 -186 111 -249 22
-27 -38 -54 -38 -92 0 -37 37 -31 60 14 60 18 0 60 11 93 25 67 27 44 35 -35
11 -25 -7 -75 -17 -112 -20 -38 -4 -68 -11 -68 -15 0 -9 78 -83 110 -105 35
-23 73 -20 100 9 31 33 79 41 118 21 39 -20 52 -44 52 -92 0 -29 -8 -44 -40
-76 -21 -22 -42 -48 -45 -59 -6 -17 -1 -19 43 -19 27 0 63 -5 80 -11 l30 -10
-69 -68 c-68 -67 -90 -103 -50 -81 35 18 30 11 -28 -45 -32 -30 -70 -77 -85
-104 -26 -49 -56 -133 -56 -159 0 -8 38 26 84 74 86 90 121 107 72 35 -48 -68
-80 -226 -58 -281 6 -14 11 -20 11 -13 4 77 133 253 213 292 52 25 91 27 108
6 15 -18 -8 -92 -45 -147 -27 -41 -32 -56 -12 -40 7 6 60 28 118 47 147 51
273 113 352 173 42 33 63 44 56 31 -18 -35 -3 -32 42 8 56 51 83 96 108 180
30 99 36 205 17 268 -15 50 -15 50 4 27 27 -32 43 -98 37 -147 l-6 -40 20 25
c51 67 73 195 48 281 -15 49 -61 104 -107 129 -30 15 -33 19 -15 20 58 1 54
13 -18 51 -80 42 -141 96 -160 140 -10 25 -17 29 -51 29 l-39 0 39 48 c21 26
49 64 60 85 21 36 21 38 3 32 -17 -5 -18 0 -13 90 2 52 1 95 -4 95 -5 -1 -29
-18 -52 -40z m133 -706 c15 -83 20 -234 8 -234 -4 0 -19 12 -35 27 -26 24 -28
25 -34 7 -23 -70 -65 -136 -124 -195 -37 -37 -77 -72 -89 -78 -19 -10 -22 -9
-32 16 -15 39 -38 63 -82 83 l-37 17 42 19 c24 10 62 36 86 58 49 45 55 32 22
-43 -11 -24 -18 -46 -15 -49 3 -3 36 26 74 64 83 85 144 200 169 321 9 46 20
79 25 74 4 -4 15 -44 22 -87z"/>
<path d="M915 3597 l-100 -52 -26 -64 c-29 -75 -58 -100 -120 -108 -44 -6
-219 -97 -219 -114 0 -15 64 -10 98 6 16 9 60 18 97 22 50 4 74 12 95 30 17
14 41 23 62 23 35 0 63 15 113 61 18 16 47 30 75 34 31 5 61 21 101 54 57 46
135 138 126 147 -3 3 -49 7 -104 9 l-98 4 -100 -52z m131 -66 c-11 -12 -35
-20 -67 -23 -27 -3 -57 -12 -67 -22 -10 -9 -25 -16 -32 -16 -8 0 -25 -10 -38
-22 l-24 -23 7 25 c4 14 8 25 9 26 0 0 16 11 35 24 19 13 46 23 60 22 14 -1
46 5 71 12 61 20 66 19 46 -3z m-166 -125 c-14 -13 -41 -26 -60 -30 l-35 -5
35 29 c19 17 46 30 59 30 l26 0 -25 -24z"/>
<path d="M1035 3426 c-33 -11 -75 -36 -93 -53 -19 -18 -51 -38 -73 -44 -53
-16 -42 -23 12 -9 24 7 62 27 85 45 23 19 61 42 85 51 43 17 73 35 54 33 -6
-1 -37 -11 -70 -23z"/>
<path d="M430 3184 c0 -23 55 -74 79 -74 18 0 21 6 21 39 0 46 -11 57 -40 39
-16 -10 -24 -10 -40 0 -17 10 -20 10 -20 -4z"/>
</g>
</svg>
